-----------------------------------------------------------------------------------
Queen - I Want To Break Free HQ MUSIC VIDEO H264 AAC [JAGUAR7]
-----------------------------------------------------------------------------------


-----------------------------------------------------------------------------------
INFO:
-----------------------------------------------------------------------------------

Format                           : MPEG-4
Codec ID                         : M4V 
File size                        : 20.0 MiB
Duration                         : 4mn 15s
Overall bit rate                 : 658 Kbps


Video
------

Format                           : AVC
Format/Info                      : Advanced Video Codec
Format profile                   : Baseline@L3.0
Format settings, CABAC           : No
Format settings, ReFrames        : 1 frame
Codec ID                         : avc1
Codec ID/Info                    : Advanced Video Coding
Duration                         : 4mn 15s
Bit rate mode                    : Variable
Bit rate                         : 526 Kbps
Maximum bit rate                 : 1 018 Kbps
Width                            : 420 pixels
Height                           : 236 pixels
Display aspect ratio             : 16:9
Frame rate mode                  : Constant
Frame rate                       : 50.000 fps
Resolution                       : 24 bits
Colorimetry                      : 4:2:0
Scan type                        : Progressive
Bits/(Pixel*Frame)               : 0.106
Stream size                      : 16.0 MiB (80%)


Audio
------

Format                           : AAC
Format/Info                      : Advanced Audio Codec
Format version                   : Version 4
Format profile                   : LC
Format settings, SBR             : No
Codec ID                         : 40
Duration                         : 4mn 15s
Bit rate mode                    : Variable
Bit rate                         : 128 Kbps
Maximum bit rate                 : 137 Kbps
Channel(s)                       : 2 channels
Channel positions                : L R
Sampling rate                    : 48.0 KHz
Resolution                       : 16 bits
Stream size                      : 3.91 MiB (20%)

-----------------------------------------------------------------------------------
Note: I Have Not Tested The File On PSP/iPod Or Any Other Handheld.
      But If It Works Please Comment.
      
      Lyrics Included In Txt File.
-----------------------------------------------------------------------------------
===================================================================================

Band Info: Queen are a British rock band formed in 1970. Queen consisted of lead singer Freddie Mercury, guitarist Brian May, bassist John Deacon and drummer Roger Taylor. The band became popular with audiences via their hit singles, live performances, originality and showmanship, being voted the greatest British band of all time in a national BBC poll.[1][2] Their 1985 Live Aid performance was voted the best live rock performance of all time in an industry poll.[3] According to the BBC, Queen had sold more than 300 million albums by 2009.
===================================================================================


Seeding Will Be Slow,Be Patient. Comment About Quality And Compatibility. 

SUPPORT THE GREAT BAND, BUY ORIGINAL CDs/DVDs. 

Support Me. Seed As Much As You Can.

===================================================================================
 
 
http://thepiratebay.org/user/VIVALARAZA7


===================================================================================


SCREENSHOTS:
  
http://img503.imageshack.us/img503/4927/queeniwanttobreakfreehq.jpg


===================================================================================